<svg fill="none" height="32" viewBox="0 0 32 32" width="32" xmlns="http://www.w3.org/2000/svg"><g stroke="#111" stroke-linecap="square" stroke-miterlimit="10" stroke-width="2"><path d="m16 30.5c8.0081 0 14.5-6.4919 14.5-14.5 0-8.00813-6.4919-14.5-14.5-14.5-8.00813 0-14.5 6.49187-14.5 14.5 0 8.0081 6.49187 14.5 14.5 14.5z"/><path d="m5.75 12c.55478-1.4163 1.39636-2.70255 2.4719-3.7781 1.07555-1.07554 2.3618-1.91712 3.7781-2.4719"/><path d="m16 20c2.2091 0 4-1.7909 4-4s-1.7909-4-4-4-4 1.7909-4 4 1.7909 4 4 4z"/></g></svg>