<svg height="73.748917" viewBox="0 0 300 73.748918" width="300" xmlns="http://www.w3.org/2000/svg"><g fill="#003f98"><path d="m0 0c-4.881 0-6.762 4.493-6.762 9.059s1.881 9.056 6.762 9.056c4.876 0 6.762-4.49 6.762-9.056s-1.886-9.059-6.762-9.059m0 22.708c-7.686 0-12.124-5.759-12.124-13.649 0-7.893 4.438-13.651 12.124-13.651 7.682 0 12.119 5.758 12.119 13.651 0 7.89-4.437 13.649-12.119 13.649" transform="matrix(2.6281465 0 0 -2.6281465 207.28139 60.68047)"/><path d="m0 0h19.259v-4.594h-13.902v-5.714h12.964v-4.478h-12.964v-6.391h13.902v-4.592h-19.259z" transform="matrix(2.6281465 0 0 -2.6281465 1 3.01263)"/><path d="m0 0h-4.85v8.853.005h4.85c3.371 0 5.613-1.467 5.613-4.43 0-2.962-2.242-4.428-5.613-4.428m-10.205-12.322h5.355v7.732h4.85c6.564 0 10.969 3.224 10.969 9.018 0 5.795-4.405 9.018-10.969 9.018h-10.205z" transform="matrix(2.6281465 0 0 -2.6281465 84.47203 38.35147)"/><path d="m0 0h-5.5v-25.769h5.252v10.438c0 2.857-.102 5.391-.199 7.632.619-1.29 2.5-5.166 3.367-6.622l6.836-11.448h5.5v25.769h-5.252v-10.177c0-2.854.105-5.654.199-7.89-.619 1.29-2.495 5.164-3.375 6.618z" transform="matrix(2.6281465 0 0 -2.6281465 258.905 3.01263)"/><path d="m0 0c0-3.463 2.881-4.809 5.945-4.809 2 0 5.248.58 5.248 3.24 0 2.809-3.968 3.34-7.797 4.359-4.015 1.063-7.882 2.569-7.882 7.344 0 5.323 5.035 7.875 9.738 7.875 5.43 0 10.424-2.37 10.424-8.384h-5.358c-.182 3.134-2.588 3.938-5.322 3.938-1.824 0-4.121-.766-4.121-2.956 0-2.004 1.311-2.313 7.832-3.992 1.898-.474 7.845-1.622 7.845-7.525 0-4.778-3.755-8.347-10.831-8.347-5.756 0-11.151 2.841-11.08 9.257z" transform="matrix(2.6281465 0 0 -2.6281465 129.28904 48.33029)"/></g></svg>