<svg height="2500" viewBox="0 0 192.744 192.744" width="2500" xmlns="http://www.w3.org/2000/svg"><g clip-rule="evenodd" fill-rule="evenodd"><path d="m0 0h192.744v192.744h-192.744z" fill="none"/><path d="m172.32 105.136h7.108v-25.294h-7.108zm17.559-25.294v25.294h-7.108v-25.294zm-171.931 9.825h-5.749v-9.825h-9.407v25.294h9.407v-12.542h5.749v12.542h9.406v-25.294h-9.406zm44.158-.418-.575-1.673h-7.734v17.56h7.734v-10.557c0-2.299 1.463-3.554 2.718-3.554 1.044 0 2.403.209 2.403 2.509v11.602h7.734v-11.393c.001-6.375-7.158-8.884-12.28-4.494zm79.433 8.518-3.605-10.19h-5.277l-3.607 10.609-3.762-10.609h-10.348l-3.709 8.937-5.227-8.937h-8.832l10.4 17.769-1.359 3.345c-.471 1.045-1.596 1.097-1.818.104a3.251 3.251 0 0 0 -6.502 0c.012 1.882 1.893 4.338 5.604 4.182 3.709-.157 5.277-3.24 5.801-4.547l8.594-20.783 6.195 17.491h5.643l3.449-10.086 3.555 10.086h5.33l6.01-17.56h-3.084zm-100.859-11.083c-5.918 0-10.716 4.4-10.716 9.829s4.798 9.829 10.716 9.829 10.717-4.4 10.717-9.829-4.798-9.829-10.717-9.829zm2.666 14.426a2.665 2.665 0 1 1 -5.331 0v-9.195a2.665 2.665 0 1 1 5.331 0z"/><path d="m98.029 97.923c.057-.41.086-.985.086-1.41 0-5.429-4.797-9.829-10.715-9.829s-10.717 4.4-10.717 9.829 4.798 9.829 10.717 9.829c4.067 0 7.604-2.077 9.42-5.139l-2.367-.877c-1.43 2.187-4.054 3.65-7.053 3.65-1.472 0-2.666-1.394-2.666-2.866v-3.187zm-13.295-6.008a2.665 2.665 0 0 1 5.331 0v3.5h-5.331zm84.891 6.008c.057-.41.086-.985.086-1.41 0-5.429-4.799-9.829-10.717-9.829s-10.717 4.4-10.717 9.829 4.799 9.829 10.717 9.829c4.066 0 7.605-2.077 9.42-5.139l-2.367-.877c-1.43 2.187-4.053 3.65-7.053 3.65-1.473 0-2.666-1.394-2.666-2.866v-3.187zm-13.297-6.008c0-1.472 1.193-2.665 2.666-2.665s2.666 1.193 2.666 2.665v3.5h-5.332z"/></g></svg>