<svg height="54.48259" viewBox="0 0 76.532317 14.415185" width="289.25601" xmlns="http://www.w3.org/2000/svg"><g fill="#9d9fa2" transform="translate(-63.031456 -179.433058)"><path d="m63.296041 179.69764v12.50703h3.464981v-12.50703z"/><path d="m69.209298 181.74938h7.393517s4.468283 0 4.468283 3.89855v6.55955h-3.466042v-6.69608c0-1.90429-1.900414-1.90429-1.900414-1.90429h-3.029302v8.61836h-3.466042z"/><path d="m83.233273 179.70363h3.466042v2.04576h3.913363v1.85773h-3.913363v5.03519s0 1.71133 1.876777 1.71133h1.757892v1.85032s-1.664053 0-2.986969 0c-4.113742 0-4.113742-3.68724-4.113742-3.68724z"/><path d="m103.8041 186.97826c0-5.5058-6.054725-5.5058-6.054725-5.5058-6.680905 0-6.402211 5.5058-6.402211 5.5058 0-.00071-.270228 5.2257 7.237942 5.2257h4.432304v-1.85032h-4.432304c-4.048831 0-3.769431-2.55306-3.769431-2.55306h8.988425zm-8.988425-1.02023c0-2.6289 2.9337-2.6289 2.9337-2.6289s2.913945 0 2.913945 2.6289z"/><path d="m117.04313 181.74938s-6.38598 0-7.73536 0c-4.1462 0-4.1462 3.80189-4.1462 3.80189s0 3.76802 3.9557 3.76802h4.45735v1.03434s0 1.37407-1.85808 1.37407c-2.29412 0-5.3908 0-5.3908 0v1.85596h5.87657c4.84082 0 4.84082-3.23003 4.84082-3.23003zm-6.16479 5.71218c-2.25178 0-2.25178-1.92582-2.25178-1.92582 0-1.92863 2.25178-1.92863 2.25178-1.92863h2.69628v3.85445z"/><path d="m127.43457 181.74092h-4.15502c-4.08269 0-4.07458 3.65231-4.07458 3.65231v6.81073h3.45616v-6.81073s0-1.78612 1.98508-1.78612h2.78836z"/><path d="m135.22461 181.74938h-6.15033v1.85773h6.15033s.95038 0 .95038.95214v1.3903s-3.20639 0-4.84187 0c-3.6195 0-3.6195 3.12702-3.6195 3.12702s0 3.12738 3.96557 3.12738h7.62v-7.6447s0-2.80987-4.07458-2.80987zm-3.04835 8.60425c-1.32186 0-1.32186-1.27706-1.32186-1.27706s0-1.27599 1.31269-1.27599h4.0079v2.55305z"/></g></svg>