<svg height="118pt" viewBox="0 0 636 118" width="848" xmlns="http://www.w3.org/2000/svg" xmlns:xlink="http://www.w3.org/1999/xlink"><symbol id="a" overflow="visible"><path d="M48.578-45.563H37.172l-5.453 17.126a198.729 198.729 0 00-2.25 8.171c-.766 2.672-1.39 5.328-1.953 7.875h-.188c-.5-2.593-1.125-5.265-1.812-7.937-.688-2.656-1.375-5.39-2.203-8.11l-5.204-17.125H6.641L3.39 0h8.453l.937-17.531c.125-1.907.188-3.86.328-5.938.125-2.062.188-4.14.25-6.218s.125-4.079.188-5.985h.187c.375 1.844.813 3.797 1.25 5.688.438 1.953.938 3.859 1.438 5.75s1 3.734 1.5 5.453L23.25-.656h7.031l5.89-18.422a112.81 112.81 0 001.626-5.328c.562-1.907 1.125-3.797 1.64-5.688a106.452 106.452 0 001.5-5.578h.188c0 2.906 0 5.813.125 8.89l.375 9.063L42.5 0h8.844zm0 0"/></symbol><symbol id="b" overflow="visible"><path d="M22.875-46.281c-2.5 0-4.828.422-6.953 1.125-2.125.781-4.016 1.843-5.703 3.265s-3.14 3.078-4.266 5.032c-1.187 1.968-2.062 4.156-2.687 6.515-.625 2.375-.954 4.985-.954 7.703 0 2.672.329 5.157.891 7.47.563 2.374 1.375 4.5 2.5 6.468 1.063 1.89 2.453 3.547 4.016 4.969 1.625 1.359 3.515 2.484 5.578 3.203C17.359.234 19.687.656 22.25.656c3.016 0 5.766-.484 8.281-1.547 2.5-1 4.64-2.484 6.453-4.5s3.266-4.5 4.266-7.53c1-2.954 1.5-6.454 1.5-10.423 0-2.437-.25-4.797-.75-7.047-.563-2.25-1.313-4.328-2.375-6.28-1.078-1.907-2.39-3.626-3.953-5.048a18.617 18.617 0 00-5.578-3.375c-2.14-.765-4.516-1.187-7.219-1.187zm-.25 7.172c1.453 0 2.703.297 3.828.89 1.125.532 2.063 1.36 2.89 2.375.876 1 1.563 2.188 2.063 3.547.563 1.375.938 2.844 1.25 4.39.25 1.595.375 3.266.375 4.923 0 2.312-.187 4.437-.687 6.453-.438 1.953-1.063 3.734-1.938 5.218s-2.015 2.657-3.265 3.485c-1.313.844-2.813 1.312-4.578 1.312a8.264 8.264 0 01-4.516-1.312c-1.313-.828-2.438-2-3.313-3.484s-1.562-3.204-2.015-5.157a29.563 29.563 0 01-.688-6.343c0-1.657.125-3.313.438-4.922.25-1.594.64-3.078 1.203-4.438s1.25-2.547 2.062-3.61c.875-1.015 1.875-1.843 3.016-2.437 1.125-.593 2.438-.89 3.875-.89zm0 0"/></symbol><symbol id="c" overflow="visible"><path d="M39.813-45.563h-8.407v13.688c0 3.672.063 7.172.188 10.422.125 3.265.375 6.344.625 9.25h-.125c-.625-1.61-1.375-3.266-2.125-4.985-.813-1.656-1.64-3.375-2.516-5.093-.812-1.657-1.687-3.25-2.562-4.797L14.734-45.563H4.704V0h8.405v-13.984c0-2.72 0-5.22-.078-7.579-.062-2.375-.125-4.562-.187-6.64s-.188-4.094-.313-5.922h.25a212.015 212.015 0 002.266 5.156c.812 1.719 1.625 3.485 2.5 5.203.89 1.72 1.765 3.328 2.64 4.922L30.532 0h9.282zm0 0"/></symbol><symbol id="d" overflow="visible"><path d="M4.703 0h9.281v-45.563h-9.28zm0 0"/></symbol><symbol id="e" overflow="visible"><path d="M33.844-45.563H.812v7.579h11.844V0h9.281v-37.984h11.907zm0 0"/></symbol><symbol id="f" overflow="visible"><path d="M27.203-21.688c1.125-.406 2.203-1 3.203-1.718 1-.657 1.875-1.532 2.625-2.485s1.39-2.015 1.828-3.265c.375-1.188.625-2.485.625-3.844 0-2.016-.312-3.797-.937-5.219-.64-1.422-1.453-2.61-2.453-3.547-1.063-.953-2.188-1.718-3.516-2.25-1.312-.593-2.625-1.015-4-1.25a24.656 24.656 0 00-4.015-.53c-1.25-.126-2.454-.126-3.454-.126-1.562 0-3.062.063-4.578.125-1.5.063-2.875.172-4.25.36-1.328.109-2.515.28-3.578.468V0h9.219v-18.484h3.125c1.453 0 2.703.234 3.64.703 1 .484 1.75 1.25 2.375 2.375.641 1.125 1.204 2.672 1.579 4.625.375 1.828.75 3.5 1.125 4.969.375 1.421.75 2.671 1.062 3.671.313.954.563 1.672.813 2.141h9.53c-.25-.469-.5-1.063-.75-1.953-.25-.828-.562-1.844-.874-2.969s-.625-2.36-.938-3.672c-.312-1.297-.625-2.61-1.015-3.969-.563-2.312-1.313-4.203-2.313-5.75-1.062-1.484-2.375-2.546-4.078-3.187zM13.922-25v-13.875a8.75 8.75 0 011.625-.297c.75-.047 1.625-.047 2.625-.047.89 0 1.765.047 2.703.235.938.234 1.75.53 2.563 1.062.828.469 1.515 1.188 2.015 2.14.5.891.75 2.063.75 3.548 0 1.422-.312 2.734-1 3.797s-1.625 1.89-2.953 2.546C21-25.297 19.5-25 17.734-25zm0 0"/></symbol><symbol id="h" overflow="visible"><path d="M26.516-45.563H14.859L1.188 0h9.406l3.328-12.031h12.906L30.281 0H40zM15.234-18.655l2.875-10.438c.266-.89.516-1.89.766-2.953.25-1.078.438-2.14.688-3.203.25-1.125.5-2.14.687-3.078h.188c.187.937.437 1.953.687 3.016s.5 2.124.75 3.203c.25 1.125.5 2.125.75 3.078l2.89 10.375zm0 0"/></symbol><symbol id="i" overflow="visible"><path d="M39.172-45.563h-9.266v27.485c0 2.734-.312 4.922-1 6.578-.64 1.719-1.578 2.969-2.765 3.734-1.188.782-2.641 1.188-4.328 1.188-1.563 0-3-.406-4.204-1.188-1.187-.828-2.062-2.062-2.75-3.78-.625-1.673-1-3.86-1-6.532v-27.485H4.58v26.72c0 4.452.687 8.124 2 11.015 1.327 2.844 3.265 4.984 5.765 6.406C14.859-.062 17.922.656 21.563.656s6.765-.719 9.406-2.14c2.625-1.36 4.64-3.547 6.078-6.391 1.375-2.906 2.125-6.578 2.125-11.031zm0 0"/></symbol><symbol id="j" overflow="visible"><path d="M4.703-.172C5.953 0 7.453.125 9.22.234c1.75.125 3.75.188 5.953.188 4.203 0 7.953-.484 11.281-1.375 3.266-.938 6.016-2.36 8.219-4.203.937-.766 1.812-1.719 2.687-2.844s1.625-2.484 2.328-3.969a23.8 23.8 0 001.626-5.219c.437-1.953.624-4.14.624-6.578 0-4.078-.624-7.578-1.937-10.484-1.266-2.844-3.016-5.156-5.328-6.922a16.333 16.333 0 00-4.516-2.61c-1.703-.718-3.64-1.25-5.765-1.609-2.141-.343-4.516-.53-7.22-.53-2.374 0-4.577.062-6.702.233-2.125.188-4.078.422-5.766.72zm9.219-38.516c.5-.124 1.125-.187 1.812-.234.75-.062 1.625-.125 2.579-.125 2.875 0 5.328.531 7.453 1.719 2.062 1.125 3.64 2.844 4.765 5.094 1.125 2.312 1.688 5.156 1.688 8.593 0 2.97-.375 5.563-1.063 7.703-.687 2.188-1.687 3.97-3.015 5.329A11.424 11.424 0 0123.5-7.531c-1.75.656-3.813.953-6.016.953H15.61c-.625-.063-1.187-.11-1.687-.172zm0 0"/></symbol><symbol id="k" overflow="visible"><path d="M2.734-6.484c0 1.75.344 3.109 1.125 4.062.766.969 1.797 1.453 3.172 1.453 1.422 0 2.422-.484 3.172-1.437.781-.953 1.125-2.297 1.125-4.078 0-1.75-.344-3.094-1.125-4.079-.75-.937-1.765-1.421-3.172-1.421s-2.422.484-3.203 1.421c-.75.954-1.094 2.313-1.094 4.079zm10.157-11.5V0h-1.688v-2.203h.156c-.5.86-1.125 1.484-1.906 1.906-.75.453-1.703.64-2.719.64-1.75 0-3.203-.593-4.234-1.812C1.469-2.703.953-4.375.953-6.484c0-2.094.547-3.766 1.578-5 1.047-1.22 2.516-1.829 4.297-1.829 1.031 0 1.953.204 2.703.657.75.422 1.375 1.078 1.828 1.922h-.156v-7.25zm0 0"/></symbol><symbol id="l" overflow="visible"><path d="M2.625-6.203v.078c0 1.578.36 2.844 1.125 3.781.781.938 1.75 1.422 3.031 1.422 1.032 0 1.797-.281 2.469-.828.688-.547 1.078-1.297 1.234-2.25h1.672c-.172 1.297-.75 2.375-1.719 3.156C9.454-.047 8.158.344 6.672.344c-1.75 0-3.219-.594-4.219-1.797S.922-4.297.922-6.422c0-2.156.531-3.86 1.531-5.078 1.031-1.203 2.469-1.813 4.281-1.813 1.75 0 3.141.579 4.125 1.735.97 1.172 1.47 2.797 1.47 4.875v.5zm-.047-1.203h8.031c-.046-1.422-.421-2.547-1.125-3.375C8.75-11.61 7.875-12 6.704-12s-2.095.422-2.845 1.25c-.75.813-1.125 1.938-1.203 3.344zm0 0"/></symbol><symbol id="m" overflow="visible"><path d="M1.125-4.047h1.578c.047.89.344 1.625 1 2.172.625.578 1.406.844 2.406.844 1.094 0 1.875-.219 2.5-.64.594-.423.891-1 .891-1.735 0-1.047-1.047-1.844-3.344-2.422h-.078c-1.844-.453-3.172-.953-3.797-1.469-.625-.562-.984-1.312-.984-2.266 0-1.093.453-2.015 1.281-2.718.828-.672 1.969-1.031 3.297-1.031 1.453 0 2.688.359 3.531 1.078.875.75 1.375 1.75 1.453 3.046H9.156c-.047-.874-.375-1.562-.953-2.062-.594-.484-1.328-.734-2.344-.734-.906 0-1.562.203-2.078.609C3.25-10.953 3-10.437 3-9.75c0 1.14 1.11 2 3.484 2.547.297.078.547.125.688.172 1.484.36 2.562.828 3.14 1.36.563.546.891 1.312.891 2.296 0 1.094-.469 2-1.39 2.703C8.905 0 7.655.344 6.171.344c-1.5 0-2.766-.39-3.703-1.188-.89-.812-1.39-1.86-1.438-3.203zm0 0"/></symbol><symbol id="n" overflow="visible"><path d="M1.719-15.734v-2.25h1.687v2.25zM1.719 0v-12.984h1.687V0zm0 0"/></symbol><symbol id="o" overflow="visible"><path d="M2.734-6.484c0 1.734.375 3.078 1.141 4.062.781.969 1.797 1.469 3.156 1.469 1.407 0 2.407-.469 3.172-1.453.781-.969 1.125-2.328 1.125-4.078s-.344-3.094-1.125-4.047c-.765-.969-1.765-1.453-3.172-1.453s-2.422.484-3.203 1.421c-.75.954-1.094 2.329-1.094 4.079zm10.157-6.5V-.672c0 1.969-.532 3.469-1.579 4.469-1.03 1.031-2.624 1.531-4.656 1.531-1.5 0-2.797-.344-3.734-1.031-.953-.672-1.469-1.594-1.578-2.766h1.734c.078.797.422 1.39 1.031 1.828.625.422 1.438.625 2.516.625 1.578 0 2.688-.375 3.453-1.156.797-.781 1.156-1.922 1.156-3.453v-1.594h.141c-.516.875-1.172 1.5-1.922 1.922-.75.453-1.672.64-2.656.64-1.766 0-3.25-.593-4.266-1.812C1.5-2.703.953-4.359.953-6.484c0-2.094.547-3.75 1.578-5 1.047-1.22 2.516-1.829 4.266-1.829 1.016 0 1.937.204 2.687.657.75.422 1.375 1.078 1.875 1.922h-.156v-2.25zm0 0"/></symbol><symbol id="p" overflow="visible"><path d="M1.578 0v-12.984h1.625v2.078h-.156c.5-.797 1.11-1.406 1.812-1.797.72-.406 1.625-.61 2.563-.61.906 0 1.687.157 2.36.485.671.297 1.25.765 1.593 1.344.203.296.36.671.438 1.109.062.422.124 1.125.124 2.094V0h-1.734v-8.063c0-1.515-.203-2.546-.672-3.093-.469-.531-1.219-.797-2.406-.797-1.203 0-2.125.375-2.828 1.14-.688.782-1.016 1.829-1.016 3.157V0zm0 0"/></symbol><symbol id="q" overflow="visible"><path d="M2.297 0v-11.75H.407v-1.234h1.89v-2.375c0-.97.281-1.672.781-2.125.469-.453 1.328-.672 2.406-.672.125 0 .25 0 .375.015.125 0 .25.032.47.078v1.329h-.22a8.668 8.668 0 00-.687-.047c-.563 0-.89.125-1.14.343-.235.235-.298.657-.298 1.235v2.219h2.344v1.234H3.984V0zm0 0"/></symbol><symbol id="r" overflow="visible"><path d="M2.656-6.484c0 1.75.344 3.109 1.125 4.062.766.969 1.797 1.453 3.203 1.453 1.391 0 2.422-.484 3.172-1.437.781-.953 1.125-2.328 1.125-4.078s-.344-3.094-1.125-4.079c-.75-.937-1.781-1.421-3.172-1.421-1.406 0-2.437.484-3.203 1.453C3-9.578 2.656-8.234 2.656-6.484zm-1.734 0c0-2.172.547-3.844 1.578-5.047 1.047-1.172 2.578-1.781 4.484-1.781 1.891 0 3.422.609 4.454 1.78 1.046 1.204 1.593 2.876 1.593 5.048 0 2.156-.547 3.828-1.578 5.03C10.406-.28 8.875.329 6.984.329c-1.906 0-3.437-.61-4.484-1.781C1.469-2.625.922-4.297.922-6.484zm0 0"/></symbol><symbol id="s" overflow="visible"><path d="M1.578 0v-12.984h1.625v2.28h-.172c.375-.874.922-1.53 1.578-1.952.672-.453 1.547-.656 2.516-.656h.25v1.578h-.266c-1.312 0-2.203.375-2.859 1.156-.64.75-.953 1.89-.953 3.422V0zm0 0"/></symbol><symbol id="t" overflow="visible"><path d="M11.906-12.984V0h-1.625v-2.078h.156c-.5.828-1.109 1.422-1.812 1.828C7.906.156 7 .344 6.031.344c-1.453 0-2.625-.375-3.375-1.14-.734-.782-1.125-1.938-1.125-3.454v-8.734h1.672v8.375c0 1.312.219 2.203.703 2.765.5.547 1.25.813 2.39.813 1.266 0 2.157-.375 2.891-1.14.72-.75 1.047-1.813 1.047-3.126v-7.687zm0 0"/></symbol><symbol id="u" overflow="visible"><path d="M6.047-12.125c1.016 0 2.094.297 3.062.797a5.833 5.833 0 012.25 2.234c.532.969.829 2.047.829 3.11 0 1.03-.297 2.109-.813 3.078A5.714 5.714 0 019.156-.687c-.969.546-2.062.828-3.11.828S3.892-.141 2.938-.688A5.652 5.652 0 01.704-2.905c-.515-.969-.812-2.047-.812-3.078 0-1.063.296-2.141.828-3.11a5.833 5.833 0 012.25-2.234c.969-.5 2.062-.797 3.078-.797zm0 1.219c-.844 0-1.563.187-2.375.625a4.63 4.63 0 00-1.875 1.844c-.453.828-.64 1.578-.64 2.453s.187 1.609.624 2.406a4.832 4.832 0 001.86 1.86c.812.437 1.546.64 2.406.64s1.578-.203 2.39-.64c.797-.438 1.422-1.063 1.86-1.86s.625-1.531.625-2.406-.188-1.625-.64-2.454a4.536 4.536 0 00-1.876-1.843c-.812-.438-1.515-.625-2.36-.625zm-2.781 8.25V-9.25H5.64c.75 0 1.312.047 1.656.172.328.125.687.36.906.656.203.297.328.703.328 1.031 0 .485-.203.97-.547 1.329-.312.343-.875.578-1.437.625v-.235c.234.094.516.25.656.375.266.266.578.688.953 1.297l.938 1.453h-1.61l-.609-1.047c-.438-.797-.813-1.312-1.094-1.515-.172-.157-.343-.188-.718-.188h-.47v2.75H3.267zm1.203-3.766h1.25c.61 0 .922-.062 1.125-.25.234-.172.297-.328.297-.64a.686.686 0 00-.11-.422c-.125-.141-.156-.22-.328-.313-.203-.062-.547-.11-1.062-.11H4.594v1.735zm0 0"/></symbol><use x="134.17" xlink:href="#a" y="80.977"/><use x="188.956" xlink:href="#b" y="80.977"/><use x="234.09" xlink:href="#c" y="80.977"/><use x="278.658" xlink:href="#d" y="80.977"/><use x="297.338" xlink:href="#e" y="80.977"/><use x="331.94" xlink:href="#b" y="80.977"/><use x="377.073" xlink:href="#f" y="80.977"/><use x="415.562" xlink:href="#g" y="80.977"/><use x="429.102" xlink:href="#h" y="80.977"/><use x="470.662" xlink:href="#i" y="80.977"/><use x="514.416" xlink:href="#j" y="80.977"/><use x="558.671" xlink:href="#d" y="80.977"/><use x="577.351" xlink:href="#b" y="80.977"/><use x="137.405" xlink:href="#k" y="108.212"/><use x="171.66" xlink:href="#l" y="108.212"/><use x="204.635" xlink:href="#m" y="108.212"/><use x="236.644" xlink:href="#n" y="108.212"/><use x="261.519" xlink:href="#o" y="108.212"/><use x="295.728" xlink:href="#p" y="108.212"/><use x="355.563" xlink:href="#q" y="108.212"/><use x="381.943" xlink:href="#r" y="108.212"/><use x="415.628" xlink:href="#s" y="108.212"/><use x="469.664" xlink:href="#m" y="108.212"/><use x="501.672" xlink:href="#r" y="108.212"/><use x="535.356" xlink:href="#t" y="108.212"/><use x="568.611" xlink:href="#p" y="108.212"/><use x="601.815" xlink:href="#k" y="108.212"/><use x="623.441" xlink:href="#u" y="34.049"/><path d="M59.879.707C27.332.707.945 26.747.945 58.867c0 32.125 26.387 58.164 58.934 58.164s58.934-26.039 58.934-58.164c0-32.12-26.387-58.16-58.934-58.16" fill-rule="evenodd"/><path d="M59.879.707C27.332.707.945 26.747.945 58.867c0 32.125 26.387 58.164 58.934 58.164s58.934-26.039 58.934-58.164c0-32.12-26.387-58.16-58.934-58.16zm0 0" fill="none" stroke="#c7a0cb" stroke-miterlimit="2.613" stroke-width=".5"/><path d="M52.71 29.492h14.477v3.195c4.165-2.097 12.743-5.648 20.61-4.046 0 0 13.285 1.703 18.055 12.773 0 0 5.793 13.625-2.383 22.484 0 0-12.801 14.336-18.567 16.86h21.59v3.281H79.961v-3.281S95.035 69.09 96.91 56.996c0 0 2.55-17.539-10.22-22.312 0 0-8.23-3.621-19.504 2.07v47.07H52.712V36.828c-11.344-5.797-19.645-2.144-19.645-2.144-12.77 4.773-10.218 22.312-10.218 22.312 1.87 12.094 16.945 23.762 16.945 23.762v3.281H13.266v-3.281h21.59c-5.766-2.524-18.567-16.86-18.567-16.86-8.176-8.859-2.383-22.484-2.383-22.484 4.766-11.07 18.055-12.773 18.055-12.773 7.957-1.618 16.64 2.03 20.75 4.117z" fill="#fff" fill-rule="evenodd"/></svg>